name analog
datacolumns 19
datarows 51
range 0.1955 0.2205
endheader
time	ground_force_vx	ground_force_vy	ground_force_vz	ground_force_px	ground_force_py	ground_force_pz	l_ground_force_vx	l_ground_force_vy	l_ground_force_vz	l_ground_force_px	l_ground_force_py	l_ground_force_pz	ground_torque_x	ground_torque_y	ground_torque_z	l_ground_torque_x	l_ground_torque_y	l_ground_torque_z
0.1955	-0.0	-0.0	-0.0	4.062545299530029	37.34564208984375	-363.0689697265625	-1.3180207014083862	-26.68595695495605	-336.0837707519531	-0.0	-0.0	-0.0	-0.0	-0.0	-0.0	73984.4453125	-36469.79296875	1314.4849853515625
0.196	-0.0	-0.0	-0.0	4.918553829193115	36.85212707519531	-361.3031005859375	-0.0887107849121093	-26.294775009155277	-331.94195556640625	-0.0	-0.0	-0.0	-0.0	-0.0	-0.0	73960.109375	-36510.92578125	1569.838623046875
0.1965	-0.0	-0.0	-0.0	5.36452579498291	36.139404296875	-358.1009216308594	0.3684415817260742	-25.650680541992188	-330.4452514648437	-0.0	-0.0	-0.0	-0.0	-0.0	-0.0	73187.234375	-36709.796875	1646.9217529296875
0.197	-0.0	-0.0	-0.0	5.1742095947265625	34.83816909790039	-353.179931640625	-0.6458887457847595	-25.85194206237793	-331.0937805175781	-0.0	-0.0	-0.0	-0.0	-0.0	-0.0	73255.375	-37015.49609375	1518.8427734375
0.1975	-0.0	-0.0	-0.0	4.3831048011779785	34.338768005371094	-350.9208374023437	-1.4442009925842283	-26.20682144165039	-330.3462829589844	-0.0	-0.0	-0.0	-0.0	-0.0	-0.0	73492.2578125	-37400.69140625	1356.8621826171875
0.198	-0.0	-0.0	-0.0	3.6152572631835938	33.72193145751953	-349.3236389160156	-1.9245970249176023	-26.59710693359375	-331.5969543457031	-0.0	-0.0	-0.0	-0.0	-0.0	-0.0	73872.4765625	-37609.54296875	1330.8817138671875
0.1985	-0.0	-0.0	-0.0	1.8926292657852173	33.21067428588867	-346.4396667480469	-2.902871608734131	-26.609304428100582	-333.09063720703125	-0.0	-0.0	-0.0	-0.0	-0.0	-0.0	74468.3203125	-38136.671875	1305.5067138671875
0.199	-0.0	-0.0	-0.0	-0.0231776144355535	32.59857177734375	-346.1942749023437	-3.624927759170532	-27.40404510498047	-336.3291931152344	-0.0	-0.0	-0.0	-0.0	-0.0	-0.0	74853.6953125	-38783.52734375	1125.8636474609375
0.1995	-0.0	-0.0	-0.0	-1.5080362558364868	32.31979751586914	-344.965576171875	-4.169406890869141	-28.22665023803711	-338.1222229003906	-0.0	-0.0	-0.0	-0.0	-0.0	-0.0	76025.3828125	-39085.7890625	1104.91015625
0.2	-0.0	-0.0	-0.0	-3.110886335372925	31.506277084350582	-344.9659118652344	-4.459754467010498	-28.41547393798828	-340.37518310546875	-0.0	-0.0	-0.0	-0.0	-0.0	-0.0	76061.6640625	-39608.859375	1142.45947265625
0.2005	-0.0	-0.0	-0.0	-3.9366633892059326	31.00598907470703	-343.7795104980469	-4.979831695556641	-29.411121368408203	-341.6123046875	-0.0	-0.0	-0.0	-0.0	-0.0	-0.0	76513.3984375	-40009.9453125	1058.404052734375
0.201	-0.0	-0.0	-0.0	-4.783351421356201	30.581558227539062	-343.9523620605469	-4.943872928619385	-29.51135635375977	-341.4037170410156	-0.0	-0.0	-0.0	-0.0	-0.0	-0.0	76755.921875	-40449.68359375	1238.87890625
0.2015	-0.0	-0.0	-0.0	-4.493255615234375	30.02450180053711	-342.8035888671875	-4.541421413421631	-29.7169246673584	-343.91436767578125	-0.0	-0.0	-0.0	-0.0	-0.0	-0.0	76835.0390625	-40593.46484375	1256.8017578125
0.202	-0.0	-0.0	-0.0	-3.8024051189422607	29.101333618164062	-341.2162170410156	-3.7258529663085938	-30.235382080078125	-344.5194396972656	-0.0	-0.0	-0.0	-0.0	-0.0	-0.0	77053.234375	-40924.359375	1374.017333984375
0.2025	-0.0	-0.0	-0.0	-2.6541402339935303	29.55780601501465	-340.5097045898437	-2.9571645259857178	-29.569934844970703	-341.423828125	-0.0	-0.0	-0.0	-0.0	-0.0	-0.0	76582.984375	-41158.12890625	1548.699951171875
0.203	-0.0	-0.0	-0.0	-2.0296530723571777	29.290193557739254	-338.8734436035156	-1.2888418436050415	-29.376108169555664	-339.2830810546875	-0.0	-0.0	-0.0	-0.0	-0.0	-0.0	76249.5625	-40794.5703125	1775.3841552734375
0.20350000000000001	-0.0	-0.0	-0.0	-0.9141638278961182	29.791593551635746	-338.9615783691406	-0.2732369899749756	-28.627832412719727	-336.44451904296875	-0.0	-0.0	-0.0	-0.0	-0.0	-0.0	75454.0390625	-41069.71875	2124.446533203125
0.20400000000000001	-0.0	-0.0	-0.0	-0.6134868264198303	30.30433654785156	-341.0848083496094	1.3655086755752563	-28.09786033630371	-330.9208984375	-0.0	-0.0	-0.0	-0.0	-0.0	-0.0	74671.9765625	-40925.265625	2356.71435546875
0.20450000000000002	-0.0	-0.0	-0.0	-0.2111397385597229	30.584583282470703	-339.0095520019531	2.4377598762512207	-28.063325881958008	-330.6466064453125	-0.0	-0.0	-0.0	-0.0	-0.0	-0.0	74199.171875	-41025.328125	2608.898681640625
0.20500000000000002	-0.0	-0.0	-0.0	0.0216877423226833	30.315170288085938	-339.3630065917969	2.4066646099090576	-28.4966983795166	-331.8294982910156	-0.0	-0.0	-0.0	-0.0	-0.0	-0.0	74522.25	-41165.66015625	2683.420166015625
0.20550000000000002	-0.0	-0.0	-0.0	0.7920936942100525	30.604101181030277	-339.790771484375	1.184796929359436	-30.072172164916992	-336.672119140625	-0.0	-0.0	-0.0	-0.0	-0.0	-0.0	75743.5078125	-41958.1640625	2470.60888671875
0.20600000000000002	-0.0	-0.0	-0.0	0.949154496192932	31.09579849243164	-342.0479431152344	-0.6550276875495911	-31.542142868041992	-343.394775390625	-0.0	-0.0	-0.0	-0.0	-0.0	-0.0	77149.671875	-43069.50390625	2357.054443359375
0.20650000000000002	-0.0	-0.0	-0.0	1.0918418169021606	31.38455009460449	-344.39263916015625	-1.8855035305023196	-33.14311218261719	-348.58660888671875	-0.0	-0.0	-0.0	-0.0	-0.0	-0.0	78734.90625	-43804.6015625	2081.82275390625
0.20700000000000002	-0.0	-0.0	-0.0	1.5952073335647583	31.594451904296875	-346.0145263671875	-2.8948113918304443	-34.953060150146484	-354.34478759765625	-0.0	-0.0	-0.0	-0.0	-0.0	-0.0	79746.578125	-44331.78125	2087.7109375
0.20750000000000002	-0.0	-0.0	-0.0	2.959414482116699	32.49542236328125	-349.6064147949219	-4.291615962982178	-35.41699981689453	-359.975341796875	-0.0	-0.0	-0.0	-0.0	-0.0	-0.0	80560.171875	-44742.41796875	1923.5821533203125
0.20800000000000002	-0.0	-0.0	-0.0	2.9859156608581543	32.64269256591797	-354.1355285644531	-4.579588890075684	-36.377742767333984	-361.6335144042969	-0.0	-0.0	-0.0	-0.0	-0.0	-0.0	81084.9296875	-45230.44921875	1930.4508056640625
0.2085	-0.0	-0.0	-0.0	3.595160722732544	32.65293502807617	-357.0237121582031	-4.269521713256836	-36.84114074707031	-363.9029235839844	-0.0	-0.0	-0.0	-0.0	-0.0	-0.0	81310.2890625	-45649.0546875	1971.403564453125
0.209	-0.0	-0.0	-0.0	3.935611724853516	33.82819366455078	-360.0133056640625	-3.038130283355713	-36.96220016479492	-363.6863098144531	-0.0	-0.0	-0.0	-0.0	-0.0	-0.0	81622.4296875	-45631.671875	2346.88525390625
0.2095	-0.0	-0.0	-0.0	3.7983744144439697	33.807769775390625	-362.3626098632813	-1.786351442337036	-36.19010925292969	-362.0271911621094	-0.0	-0.0	-0.0	-0.0	-0.0	-0.0	81083.1171875	-45562.84765625	2295.6162109375
0.21	-0.0	-0.0	-0.0	3.887182235717773	34.29477310180664	-361.8181762695313	-0.4435539245605469	-36.2569694519043	-361.7638244628906	-0.0	-0.0	-0.0	-0.0	-0.0	-0.0	81004.4453125	-45590.71484375	2608.173095703125
0.2105	-0.0	-0.0	-0.0	3.70610785484314	34.513816833496094	-364.5220031738281	-0.1904151439666748	-35.67119216918945	-362.1128234863281	-0.0	-0.0	-0.0	-0.0	-0.0	-0.0	81326.6015625	-46165.46875	2827.700927734375
0.211	-0.0	-0.0	-0.0	3.0331573486328125	34.23617172241211	-366.6407775878906	0.7124862670898438	-36.47686004638672	-365.65728759765625	-0.0	-0.0	-0.0	-0.0	-0.0	-0.0	81513.6328125	-46296.20703125	2723.924072265625
0.2115	-0.0	-0.0	-0.0	3.71671986579895	34.5837516784668	-367.4661254882813	0.2234337329864502	-37.568603515625	-367.2654724121094	-0.0	-0.0	-0.0	-0.0	-0.0	-0.0	81987.046875	-46723.00390625	2826.5478515625
0.212	-0.0	-0.0	-0.0	3.8268282413482666	34.345176696777344	-367.03314208984375	-0.663506269454956	-38.33161163330078	-368.8440246582031	-0.0	-0.0	-0.0	-0.0	-0.0	-0.0	82402.6015625	-46901.93359375	2744.991943359375
0.2125	-0.0	-0.0	-0.0	4.638946533203125	34.681636810302734	-368.0920104980469	-0.9547134041786194	-38.44521713256836	-368.27191162109375	-0.0	-0.0	-0.0	-0.0	-0.0	-0.0	82260.671875	-46429.12890625	2729.2333984375
0.213	-0.0	-0.0	-0.0	4.916433334350586	34.701271057128906	-366.3256530761719	-1.3201712369918823	-37.67726135253906	-364.8634643554688	-0.0	-0.0	-0.0	-0.0	-0.0	-0.0	81943.953125	-46449.91796875	2544.1064453125
0.2135	-0.0	-0.0	-0.0	5.996729850769043	34.29560089111328	-366.9186401367188	-1.288869023323059	-36.866455078125	-362.4806823730469	-0.0	-0.0	-0.0	-0.0	-0.0	-0.0	80915.015625	-45767.58984375	2615.843505859375
0.214	-0.0	-0.0	-0.0	7.196854591369629	34.39623260498047	-362.67083740234375	-0.3444750308990478	-35.64067077636719	-356.05303955078125	-0.0	-0.0	-0.0	-0.0	-0.0	-0.0	79895.34375	-45327.12890625	2440.488525390625
0.2145	-0.0	-0.0	-0.0	7.712965488433838	33.97800827026367	-363.8136291503906	0.835577666759491	-34.0613899230957	-351.6362609863281	-0.0	-0.0	-0.0	-0.0	-0.0	-0.0	78391.0234375	-44753.1640625	2539.603759765625
0.215	-0.0	-0.0	-0.0	7.175214767456055	34.42637634277344	-365.3779602050781	1.2317205667495728	-32.91343688964844	-349.1113586425781	-0.0	-0.0	-0.0	-0.0	-0.0	-0.0	78450.1171875	-44615.70703125	2559.603759765625
0.2155	-0.0	-0.0	-0.0	8.01939868927002	34.10504531860352	-367.0295715332031	1.6753206253051758	-32.68916320800781	-353.461669921875	-0.0	-0.0	-0.0	-0.0	-0.0	-0.0	79372.625	-44952.5546875	2613.54052734375
0.216	-0.0	-0.0	-0.0	7.381797790527344	35.01875305175781	-368.7574768066406	1.3103773593902588	-34.23098373413086	-361.6114501953125	-0.0	-0.0	-0.0	-0.0	-0.0	-0.0	80819.8125	-45959.62109375	2678.098876953125
0.2165	-0.0	-0.0	-0.0	8.146430015563965	35.17387390136719	-369.7247009277344	-0.0201243013143539	-35.41699981689453	-368.39459228515625	-0.0	-0.0	-0.0	-0.0	-0.0	-0.0	82285.6171875	-46626.43359375	2334.44873046875
0.217	-0.0	-0.0	-0.0	7.826851844787598	35.60044860839844	-372.9580078125	-1.3806636333465576	-36.60372161865234	-374.5216369628906	-0.0	-0.0	-0.0	-0.0	-0.0	-0.0	84342.28125	-47301.46875	2181.515625
0.2175	-0.0	-0.0	-0.0	8.226006507873535	36.149696350097656	-375.0401916503906	-3.0759143829345703	-37.78185272216797	-381.8970947265625	-0.0	-0.0	-0.0	-0.0	-0.0	-0.0	85813.875	-48556.07421875	1959.0572509765625
0.218	-0.0	-0.0	-0.0	8.198127746582031	35.66139221191406	-374.9068298339844	-4.977681636810303	-38.115821838378906	-388.68353271484375	-0.0	-0.0	-0.0	-0.0	-0.0	-0.0	87128.1953125	-49021.87890625	1565.57861328125
0.2185	-0.0	-0.0	-0.0	8.644242286682129	35.52891159057617	-378.0014343261719	-5.470252513885498	-39.028411865234375	-393.2219848632813	-0.0	-0.0	-0.0	-0.0	-0.0	-0.0	88149.9453125	-49933.41796875	1393.535400390625
0.219	-0.0	-0.0	-0.0	9.87327480316162	35.2774543762207	-376.7420043945313	-5.648270606994629	-39.047882080078125	-397.1387634277344	-0.0	-0.0	-0.0	-0.0	-0.0	-0.0	89246.9375	-50511.26953125	1522.0810546875
0.2195	-0.0	-0.0	-0.0	9.465368270874023	35.04634475708008	-380.5845947265625	-4.869399547576904	-38.86154174804688	-398.5785217285156	-0.0	-0.0	-0.0	-0.0	-0.0	-0.0	89890.65625	-50803.28515625	1562.1015625
0.22	-0.0	-0.0	-0.0	9.501371383666992	35.491004943847656	-383.0254211425781	-3.5291285514831543	-37.9188346862793	-399.080322265625	-0.0	-0.0	-0.0	-0.0	-0.0	-0.0	89772.921875	-51039.9921875	1830.256591796875
0.2205	-0.0	-0.0	-0.0	9.884504318237305	35.010406494140625	-384.2248229980469	-1.3402330875396729	-36.91846466064453	-398.6557922363281	-0.0	-0.0	-0.0	-0.0	-0.0	-0.0	89422.9609375	-51210.03125	2158.344970703125
